:FULLY-SPECIFIED
:FORCE-ALL-JOINTS-BE-3DOF
:DEGREES
2548
root 4.01578 13.8363 -23.9894 -8.57404 81.9299 -10.2221
lfemur -34.5 -0.238577 -15.8028
ltibia 86.6464 -0 0
lfoot -23.4684 29.0421 0.0425745
ltoes -44.3763 0 0
rfemur -58.2114 -19.1068 13.9231
rtibia 47.33 -0 0
rfoot -0.317311 5.296 0.251995
rtoes 2.57108 -0 0
lowerback 17.8953 0.422826 -4.72189
upperback -0.427149 -0.0663359 2.88186
thorax -10.5858 0.333059 5.87568
lowerneck 5.01223 -14.6588 -15.1549
upperneck -0.391133 -20.4678 15.2926
head 2.22965 -10.3805 6.30728
lclavicle -1.55052e-14 -1.03368e-14 0
lhumerus -48.3937 -44.7478 111.676
lradius 106.032 -0 0
lwrist 78.9729 0 0
lhand 7.08503 39.4041 0.0172616
lfingers 7.12502 -0 0
lthumb 32.3575 66.5463 0.019748
rclavicle -1.55052e-14 -1.03368e-14 0
rhumerus 10.8335 -7.04503 -59.4589
rradius 80.0846 -0 0
rwrist 12.272 0 0
rhand -32.6695 -41.7985 0.880553
rfingers 7.12502 -0 0
rthumb -5.89144 -71.511 0.841494
2549
root 3.96658 13.8664 -24.1323 -6.59384 81.1724 -8.08103
lfemur -33.8031 -2.11535 -16.4613
ltibia 86.0858 -0 0
lfoot -22.9174 29.4493 0.042404
ltoes -45.2133 0 0
rfemur -58.3323 -18.299 14.4645
rtibia 44.7112 -0 0
rfoot -0.647221 4.99467 0.241951
rtoes 1.2685 -0 0
lowerback 18.0607 0.541315 -4.94133
upperback -0.327925 0.0368322 2.85181
thorax -10.5856 0.39038 5.94238
lowerneck 5.00138 -14.6641 -15.165
upperneck -0.460416 -20.4677 15.3344
head 2.21646 -10.3807 6.32185
lclavicle -1.55052e-14 -1.03368e-14 0
lhumerus -47.7313 -44.5682 111.171
lradius 105.807 -0 0
lwrist 78.603 0 0
lhand 6.95938 39.2312 0.0220738
lfingers 7.12502 -0 0
lthumb 32.2381 66.3995 0.0249275
rclavicle -1.55052e-14 -1.03368e-14 0
rhumerus 11.0728 -6.09791 -59.3275
rradius 80.6476 -0 0
rwrist 9.95952 0 0
rhand -31.8424 -40.7468 0.936981
rfingers 7.12502 -0 0
rthumb -5.09309 -70.4703 0.895574
2550
root 3.91737 13.8966 -24.2751 -5.02613 80.5253 -6.34633
lfemur -33.0908 -3.85388 -17.106
ltibia 85.5237 -0 0
lfoot -22.4278 29.8191 0.0424858
ltoes -46.0273 0 0
rfemur -58.4415 -17.5823 14.9794
rtibia 42.184 -0 0
rfoot -1.00465 4.73905 0.225918
rtoes -0.0646698 0 0
lowerback 18.213 0.653791 -5.16795
upperback -0.236752 0.130157 2.82488
thorax -10.5853 0.443773 6.01924
lowerneck 4.98958 -14.6706 -15.1768
upperneck -0.51613 -20.47 15.3632
head 2.20646 -10.3818 6.33205
lclavicle -1.55052e-14 -1.03368e-14 0
lhumerus -47.142 -44.3469 110.704
lradius 105.606 -0 0
lwrist 78.2737 0 0
lhand 6.86312 39.0652 0.0270496
lfingers 7.12502 -0 0
lthumb 32.1465 66.2532 0.030057
rclavicle -1.55052e-14 -1.03368e-14 0
rhumerus 11.2547 -5.25176 -59.2451
rradius 81.2111 -0 0
rwrist 7.82467 0 0
rhand -31.0675 -39.7457 0.978028
rfingers 7.12502 -0 0
rthumb -4.34505 -69.4793 0.93492
2551
root 3.86817 13.9267 -24.418 -3.70324 79.9195 -4.85757
lfemur -32.3766 -5.45099 -17.7416
ltibia 84.9613 -0 0
lfoot -21.9985 30.157 0.0430868
ltoes -46.809 0 0
rfemur -58.5417 -16.9447 15.4769
rtibia 39.7875 -0 0
rfoot -1.39193 4.50208 0.206693
rtoes -1.41025 0 0
lowerback 18.3543 0.76149 -5.40058
upperback -0.152958 0.215374 2.80003
thorax -10.5856 0.493965 6.10403
lowerneck 4.97699 -14.6783 -15.1902
upperneck -0.559674 -20.4746 15.3839
head 2.19978 -10.3839 6.33938
lclavicle -1.55052e-14 -1.03368e-14 0
lhumerus -46.5995 -44.1079 110.275
lradius 105.417 -0 0
lwrist 77.9741 0 0
lhand 6.78848 38.911 0.0319938
lfingers 7.12502 -0 0
lthumb 32.0755 66.1139 0.0349384
rclavicle -1.55052e-14 -1.03368e-14 0
rhumerus 11.4164 -4.45608 -59.193
rradius 81.7822 -0 0
rwrist 5.84983 0 0
rhand -30.3316 -38.7874 1.00547
rfingers 7.12502 -0 0
rthumb -3.63472 -68.5301 0.961223
2552
root 3.81896 13.9568 -24.5608 -2.54426 79.2841 -3.54103
lfemur -31.6737 -6.90365 -18.3718
ltibia 84.3995 -0 0
lfoot -21.6282 30.4684 0.044271
ltoes -47.5493 0 0
rfemur -58.6349 -16.3739 15.9658
rtibia 37.5608 -0 0
rfoot -1.81139 4.25669 0.186726
rtoes -2.75007 0 0
lowerback 18.487 0.865654 -5.63809
upperback -0.0758791 0.294221 2.77624
thorax -10.5874 0.541691 6.19452
lowerneck 4.96376 -14.6868 -15.205
upperneck -0.592442 -20.4816 15.4017
head 2.19656 -10.3871 6.34537
lclavicle -1.55052e-14 -1.03368e-14 0
lhumerus -46.0765 -43.8753 109.879
lradius 105.228 -0 0
lwrist 77.6933 0 0
lhand 6.72767 38.7734 0.036669
lfingers 7.12502 -0 0
lthumb 32.0176 65.9879 0.0393483
rclavicle -1.55052e-14 -1.03368e-14 0
rhumerus 11.596 -3.66061 -59.1513
rradius 82.3682 -0 0
rwrist 4.01735 0 0
rhand -29.6218 -37.8637 1.02034
rfingers 7.12502 -0 0
rthumb -2.94948 -67.615 0.975451
2553
root 3.76976 13.9869 -24.7037 -1.51647 78.5477 -2.37124
lfemur -30.9956 -8.20901 -18.9992
ltibia 83.8393 -0 0
lfoot -21.3159 30.7588 0.0459316
ltoes -48.2389 0 0
rfemur -58.7224 -15.8577 16.4547
rtibia 35.5431 -0 0
rfoot -2.26537 3.97574 0.168051
rtoes -4.06596 0 0
lowerback 18.6132 0.967538 -5.87928
upperback -0.00485372 0.368441 2.75251
thorax -10.5915 0.587685 6.28848
lowerneck 4.95004 -14.6962 -15.2211
upperneck -0.61583 -20.4908 15.4216
head 2.19693 -10.3913 6.35154
lclavicle -1.55052e-14 -1.03368e-14 0
lhumerus -45.545 -43.6723 109.512
lradius 105.029 -0 0
lwrist 77.4204 0 0
lhand 6.67293 38.6573 0.0407985
lfingers 7.12502 -0 0
lthumb 31.9654 65.8816 0.0430346
rclavicle -1.55052e-14 -1.03368e-14 0
rhumerus 11.8319 -2.81527 -59.0989
rradius 82.9764 -0 0
rwrist 2.30958 0 0
rhand -28.9248 -36.9666 1.02296
rfingers 7.12502 -0 0
rthumb -2.27664 -66.7261 0.977922
2554
root 3.72055 14.017 -24.8465 -0.614326 77.6385 -1.34983
lfemur -30.3555 -9.36436 -19.6263
ltibia 83.2818 -0 0
lfoot -21.0604 31.0334 0.0478208
ltoes -48.8688 0 0
rfemur -58.8056 -15.3837 16.9519
rtibia 33.7734 -0 0
rfoot -2.75622 3.63209 0.152202
rtoes -5.33973 0 0
lowerback 18.7351 1.06841 -6.12298
upperback 0.0607737 0.43978 2.72784
thorax -10.5987 0.632684 6.38368
lowerneck 4.93597 -14.7062 -15.2383
upperneck -0.631237 -20.5022 15.4489
head 2.20103 -10.3968 6.35941
lclavicle -1.55052e-14 -1.03368e-14 0
lhumerus -44.9766 -43.5223 109.17
lradius 104.808 -0 0
lwrist 77.1444 0 0
lhand 6.6165 38.5673 0.0440748
lfingers 7.12502 -0 0
lthumb 31.9115 65.8014 0.0457229
rclavicle -1.55052e-14 -1.03368e-14 0
rhumerus 12.1634 -1.87027 -59.0129
rradius 83.6139 -0 0
rwrist 0.70887 0 0
rhand -28.2275 -36.0879 1.01302
rfingers 7.12502 -0 0
rthumb -1.60354 -65.8556 0.968345
2555
root 3.67135 14.0471 -24.9894 0.155795 76.4849 -0.490408
lfemur -29.7671 -10.3672 -20.2548
ltibia 82.728 -0 0
lfoot -20.8604 31.2979 0.0495789
ltoes -49.4296 0 0
rfemur -58.8849 -14.9397 17.4657
rtibia 32.2907 -0 0
rfoot -3.28629 3.19855 0.140116
rtoes -6.55322 0 0
lowerback 18.8548 1.16953 -6.36798
upperback 0.121655 0.509986 2.70123
thorax -10.6098 0.67743 6.47789
lowerneck 4.92172 -14.7168 -15.2565
upperneck -0.640063 -20.5159 15.4885
head 2.209 -10.4034 6.37051
lclavicle -1.55052e-14 -1.03368e-14 0
lhumerus -44.3423 -43.448 108.848
lradius 104.554 -0 0
lwrist 76.8545 0 0
lhand 6.5506 38.5085 0.0461746
lfingers 7.12502 -0 0
lthumb 31.8486 65.7535 0.0471292
rclavicle -1.55052e-14 -1.03368e-14 0
rhumerus 12.6307 -0.776286 -58.868
rradius 84.288 -0 0
rwrist -0.802437 0 0
rhand -27.5168 -35.2195 0.989615
rfingers 7.12502 -0 0
rthumb -0.917507 -64.9956 0.945847
2556
root 3.62214 14.0773 -25.1322 0.78769 75.015 0.193573
lfemur -29.2438 -11.2151 -20.8863
ltibia 82.1789 -0 0
lfoot -20.7149 31.5575 0.0507626
ltoes -49.9122 0 0
rfemur -58.961 -14.5133 18.0042
rtibia 31.1343 -0 0
rfoot -3.85797 2.64792 0.132029
rtoes -7.68826 0 0
lowerback 18.9747 1.27222 -6.61307
upperback 0.17844 0.580811 2.6717
thorax -10.6257 0.722664 6.56888
lowerneck 4.90743 -14.7276 -15.2754
upperneck -0.643712 -20.5316 15.5455
head 2.22097 -10.4113 6.38634
lclavicle -1.55052e-14 -1.03368e-14 0
lhumerus -43.6122 -43.4722 108.54
lradius 104.256 -0 0
lwrist 76.5398 0 0
lhand 6.46746 38.4855 0.0467809
lfingers 7.12502 -0 0
lthumb 31.7692 65.7443 0.0469822
rclavicle -1.55052e-14 -1.03368e-14 0
rhumerus 13.2756 0.515035 -58.6361
rradius 85.0059 -0 0
rwrist -2.24199 0 0
rhand -26.7797 -34.3534 0.951222
rfingers 7.12502 -0 0
rthumb -0.205921 -64.1385 0.908991
2557
root 3.57294 14.1074 -25.2751 1.28341 73.1573 0.696807
lfemur -28.7995 -11.9061 -21.5225
ltibia 81.6354 -0 0
lfoot -20.6227 31.8177 0.0508714
ltoes -50.3074 0 0
rfemur -59.0337 -14.0922 18.5753
rtibia 30.3431 -0 0
rfoot -4.47366 1.95294 0.127356
rtoes -8.72666 0 0
lowerback 19.0968 1.37776 -6.85702
upperback 0.231771 0.654006 2.63825
thorax -10.6471 0.769129 6.65441
lowerneck 4.89326 -14.7387 -15.295
upperneck -0.643592 -20.5495 15.6251
head 2.23708 -10.4206 6.40844
lclavicle -1.55052e-14 -1.03368e-14 0
lhumerus -42.7552 -43.617 108.237
lradius 103.903 -0 0
lwrist 76.1894 0 0
lhand 6.35931 38.5033 0.0456113
lfingers 7.12502 -0 0
lthumb 31.6659 65.7803 0.0450534
rclavicle -1.55052e-14 -1.03368e-14 0
rhumerus 14.1426 2.05044 -58.2841
rradius 85.775 -0 0
rwrist -3.62744 0 0
rhand -26.0031 -33.4817 0.895722
rfingers 7.12502 -0 0
rthumb 0.543798 -63.2763 0.855767
2558
root 3.52373 14.1375 -25.4179 1.6562 70.84 1.02494
lfemur -28.4479 -12.4382 -22.1651
ltibia 81.0987 -0 0
lfoot -20.5827 32.084 0.0493736
ltoes -50.6061 0 0
rfemur -59.1027 -13.6638 19.1867
rtibia 29.9563 -0 0
rfoot -5.13581 1.08637 0.124563
rtoes -9.65026 0 0
lowerback 19.2233 1.48747 -7.09859
upperback 0.282288 0.731327 2.59993
thorax -10.6749 0.817567 6.73225
lowerneck 4.87934 -14.7498 -15.3152
upperneck -0.641119 -20.5695 15.7324
head 2.25747 -10.4313 6.43832
lclavicle -1.55052e-14 -1.03368e-14 0
lhumerus -41.7384 -43.9047 107.93
lradius 103.483 -0 0
lwrist 75.7923 0 0
lhand 6.21838 38.5666 0.0424525
lfingers 7.12502 -0 0
lthumb 31.5315 65.8678 0.0411949
rclavicle -1.55052e-14 -1.03368e-14 0
rhumerus 15.2805 3.87401 -57.7724
rradius 86.6024 -0 0
rwrist -4.97644 0 0
rhand -25.174 -32.5965 0.820373
rfingers 7.12502 -0 0
rthumb 1.34415 -62.4017 0.783576
2559
root 3.47453 14.1676 -25.5608 1.92883 67.9911 1.19276
lfemur -28.2027 -12.8097 -22.8163
ltibia 80.5698 -0 0
lfoot -20.5937 32.3616 0.0457309
ltoes -50.799 0 0
rfemur -59.1674 -13.216 19.8463
rtibia 30.0129 -0 0
rfoot -5.84686 0.0209557 0.121024
rtoes -10.4409 0 0
lowerback 19.3564 1.60269 -7.33652
upperback 0.330625 0.81453 2.55574
thorax -10.7099 0.86872 6.80015
lowerneck 4.86585 -14.7608 -15.3357
upperneck -0.637714 -20.5914 15.8723
head 2.28225 -10.4435 6.4775
lclavicle -1.55052e-14 -1.03368e-14 0
lhumerus -40.5262 -44.3566 107.605
lradius 102.985 -0 0
lwrist 75.3377 0 0
lhand 6.03688 38.6803 0.0372024
lfingers 7.12502 -0 0
lthumb 31.3583 66.013 0.0353865
rclavicle -1.55052e-14 -1.03368e-14 0
rhumerus 16.7448 6.02566 -57.0521
rradius 87.4953 -0 0
rwrist -6.30664 0 0
rhand -24.2797 -31.6901 0.721769
rfingers 7.12502 -0 0
rthumb 2.20754 -61.5069 0.689189
2560
root 3.42532 14.1977 -25.7036 2.12963 64.5386 1.2199
lfemur -28.0777 -13.0192 -23.4789
ltibia 80.0495 -0 0
lfoot -20.6546 32.6561 0.0394218
ltoes -50.8769 0 0
rfemur -59.2264 -12.7361 20.5616
rtibia 30.5521 -0 0
rfoot -6.60919 -1.27053 0.11287
rtoes -11.0803 0 0
lowerback 19.4983 1.72476 -7.56954
upperback 0.377408 0.905374 2.50472
thorax -10.7529 0.923321 6.85587
lowerneck 4.85292 -14.7716 -15.3564
upperneck -0.634807 -20.6154 16.0502
head 2.31157 -10.4572 6.52751
lclavicle -1.55052e-14 -1.03368e-14 0
lhumerus -39.0794 -44.9937 107.245
lradius 102.398 -0 0
lwrist 74.8147 0 0
lhand 5.80704 38.8492 0.0299176
lfingers 7.12502 -0 0
lthumb 31.1391 66.2225 0.0277898
rclavicle -1.55052e-14 -1.03368e-14 0
rhumerus 18.6012 8.53879 -56.061
rradius 88.4611 -0 0
rwrist -7.6357 0 0
rhand -23.3074 -30.755 0.595784
rfingers 7.12502 -0 0
rthumb 3.14624 -60.5849 0.568703
